<?xml version="1.0" standalone="no"?>
<!DOCTYPE svg PUBLIC "-//W3C//DTD SVG 20010904//EN"
 "http://www.w3.org/TR/2001/REC-SVG-20010904/DTD/svg10.dtd">
<svg version="1.0" xmlns="http://www.w3.org/2000/svg"
 width="686.000000pt" height="386.000000pt" viewBox="0 0 686.000000 386.000000"
 preserveAspectRatio="xMidYMid meet">

<g transform="translate(0.000000,386.000000) scale(0.100000,-0.100000)"
fill="#000000" stroke="none">
<path d="M0 1930 l0 -1930 530 0 530 0 0 1930 0 1930 -530 0 -530 0 0 -1930z
m244 1739 c53 -62 17 -148 -62 -149 -76 0 -110 94 -55 152 38 39 83 38 117 -3z
m106 -39 c0 -34 3 -40 21 -40 11 0 17 -4 14 -10 -3 -5 -17 -10 -31 -10 -22 0
-24 4 -24 50 0 28 5 50 10 50 6 0 10 -18 10 -40z m120 21 c5 -11 10 -26 10
-35 0 -18 -27 -46 -45 -46 -36 0 -59 62 -33 88 18 18 56 14 68 -7z m95 9 c-3
-5 -14 -10 -25 -10 -20 0 -32 -22 -24 -45 9 -23 26 -18 19 5 -5 16 -2 20 14
20 16 0 21 -6 21 -25 0 -29 -41 -45 -65 -25 -18 15 -20 61 -3 78 15 15 72 16
63 2z m95 -10 c25 -46 -27 -102 -65 -70 -18 15 -20 61 -3 78 19 19 56 14 68
-8z m-520 -455 c0 -18 -5 -25 -20 -25 -15 0 -20 7 -20 25 0 18 5 25 20 25 15
0 20 -7 20 -25z m50 10 c0 -8 -9 -15 -20 -15 -11 0 -20 7 -20 15 0 8 9 15 20
15 11 0 20 -7 20 -15z m77 -15 c3 -10 2 -11 -4 -4 -4 6 -15 14 -23 17 -11 5
-9 6 4 4 11 -1 21 -9 23 -17z m160 0 c20 0 12 -34 -10 -38 -13 -3 -17 3 -16
30 0 18 3 27 6 21 2 -7 11 -13 20 -13z m171 -5 c0 -30 -15 -42 -31 -26 -8 8
-5 16 9 30 10 11 20 20 20 20 1 1 2 -10 2 -24z m-290 -21 c-3 -14 -5 -12 -10
9 -3 19 -2 25 4 19 6 -6 8 -18 6 -28z m38 24 c4 -7 3 -8 -4 -4 -7 4 -12 2 -12
-5 0 -7 -3 -10 -6 -6 -6 5 3 27 11 27 2 0 7 -5 11 -12z m130 0 c4 -7 3 -8 -4
-4 -8 5 -12 -1 -13 -16 0 -13 -3 -17 -6 -10 -5 13 2 42 11 42 3 0 8 -5 12 -12z
m44 -19 c0 -10 -7 -19 -15 -19 -8 0 -15 5 -15 11 0 5 5 7 12 3 8 -5 9 0 6 14
-4 12 -2 20 3 16 5 -3 9 -14 9 -25z m-136 14 c-5 -5 -12 -12 -16 -18 -4 -6 -8
-2 -8 8 0 9 7 17 17 17 9 0 12 -3 7 -7z m159 -13 c-3 -11 -7 -20 -9 -20 -2 0
-4 9 -4 20 0 11 4 20 9 20 5 0 7 -9 4 -20z m-381 -15 c-2 -14 0 -25 6 -25 6 0
13 10 15 23 4 19 4 18 6 -5 1 -22 -4 -28 -19 -28 -16 0 -20 7 -20 30 0 17 4
30 9 30 4 0 6 -11 3 -25z m103 5 c-3 -5 -14 -10 -23 -9 -14 0 -13 2 3 9 27 11
27 11 20 0z m-144 -30 c6 0 7 5 4 10 -3 6 -1 10 4 10 6 0 11 -7 11 -15 0 -8
-9 -15 -20 -15 -13 0 -20 6 -19 18 0 10 3 12 6 5 2 -7 9 -13 14 -13z m26 -197
c-29 -7 -20 -75 11 -79 16 -3 22 1 22 15 0 11 -6 22 -12 24 -8 3 -5 6 5 6 14
1 18 -5 15 -26 -3 -25 -7 -28 -38 -28 -33 0 -36 2 -32 27 2 16 0 28 -6 28 -6
0 -13 -12 -15 -27 -4 -26 -4 -26 -6 5 -1 22 3 32 14 32 8 0 15 7 15 15 0 9 9
15 23 14 17 -1 18 -2 4 -6z m231 -33 c2 -30 -11 -40 -24 -18 -4 7 -3 8 4 4 7
-4 12 -1 12 9 0 10 -5 13 -12 9 -9 -5 -9 -2 1 9 17 22 16 22 19 -13z m-56 -20
c6 0 8 9 5 20 -3 11 -1 18 4 14 5 -3 9 -13 9 -24 0 -14 -8 -18 -37 -18 -22 0
-31 3 -21 7 13 4 15 10 8 21 -8 12 -10 12 -10 1 0 -8 -3 -12 -6 -8 -3 3 -3 11
2 18 5 9 11 7 22 -9 8 -12 19 -22 24 -22z m108 19 c0 -5 -10 -8 -22 -8 -18 1
-19 2 -5 6 9 2 14 9 11 15 -4 7 -2 8 4 4 7 -4 12 -11 12 -17z m70 -10 c0 -11
-7 -19 -17 -19 -15 0 -15 2 -4 9 8 5 11 16 8 26 -4 9 -3 14 3 10 6 -3 10 -15
10 -26z m68 -18 c-5 -2 -16 6 -24 18 -9 12 -20 18 -26 15 -7 -4 -8 -2 -4 5 5
8 16 5 35 -11 15 -13 24 -25 19 -27z m52 45 c0 -2 -8 -10 -17 -17 -16 -13 -17
-12 -4 4 13 16 21 21 21 13z m40 -26 c0 -13 -6 -20 -17 -19 -11 0 -13 3 -5 6
6 2 12 11 12 19 0 8 2 14 5 14 3 0 5 -9 5 -20z m-400 -16 c0 -2 -7 -4 -15 -4
-8 0 -15 4 -15 10 0 5 7 7 15 4 8 -4 15 -8 15 -10z m275 -2 c-3 -3 -11 0 -18
7 -9 10 -8 11 6 5 10 -3 15 -9 12 -12z m-365 -232 c0 -26 -4 -30 -28 -30 -15
0 -33 -5 -40 -12 -9 -9 -12 -3 -12 30 l0 42 40 0 c38 0 40 -2 40 -30z m20 -28
l0 -38 -40 4 c-49 5 -53 22 -5 22 31 0 35 3 35 25 0 14 2 25 5 25 3 0 5 -17 5
-38z m67 32 c-3 -3 -12 -4 -19 -1 -8 3 -5 6 6 6 11 1 17 -2 13 -5z m40 -38
c-4 -9 -12 -16 -19 -15 -10 0 -10 2 0 6 6 2 12 11 12 19 0 9 -5 12 -12 8 -7
-5 -8 -3 -3 5 10 18 29 -3 22 -23z m26 19 c-3 -9 -8 -14 -10 -11 -3 3 -2 9 2
15 9 16 15 13 8 -4z m111 7 c-7 -4 -14 -16 -17 -27 -4 -18 -5 -17 -6 3 -1 15
-5 21 -13 16 -6 -4 -8 -3 -5 2 3 5 16 10 29 11 12 1 18 -1 12 -5z m-70 -35 c7
-6 6 -7 -4 -4 -8 2 -16 12 -17 23 -2 13 -1 15 4 4 3 -8 11 -19 17 -23z m83 1
c-3 -8 -6 -5 -6 6 -1 11 2 17 5 13 3 -3 4 -12 1 -19z m-322 -245 c0 -27 11
-38 38 -38 11 0 22 -6 24 -12 8 -23 -37 -14 -62 12 -26 25 -35 70 -12 62 6 -2
12 -13 12 -24z m132 11 c-3 -3 -12 -4 -19 -1 -8 3 -5 6 6 6 11 1 17 -2 13 -5z
m43 -29 c0 -17 -5 -25 -17 -24 -11 0 -13 3 -5 6 6 2 12 13 12 24 0 10 2 19 5
19 3 0 5 -11 5 -25z m47 -9 c-4 -9 -12 -16 -19 -15 -10 0 -10 2 0 6 6 2 12 11
12 19 0 9 -5 12 -12 8 -7 -5 -8 -3 -3 5 10 18 29 -3 22 -23z m43 23 c0 -8 5
-7 15 1 12 10 19 10 27 2 15 -15 1 -45 -18 -38 -8 3 -24 1 -35 -4 -16 -9 -19
-7 -19 13 0 13 3 27 7 30 10 11 23 8 23 -4z m105 -14 c0 -14 -3 -25 -7 -25 -5
0 -8 9 -8 20 0 27 -18 25 -23 -2 -4 -20 -4 -19 -6 5 -1 22 3 27 22 27 17 0 22
-6 22 -25z m-240 -14 c-3 -6 -11 -11 -16 -11 -5 0 -4 6 3 14 14 16 24 13 13
-3z m-92 -249 l22 12 -25 7 -25 8 25 -2 c22 -2 25 -7 28 -45 l3 -43 -48 3
c-44 3 -48 5 -51 31 -6 48 4 61 28 37 17 -17 24 -19 43 -8z m87 -3 c0 -6 -4
-7 -10 -4 -5 3 -10 11 -10 16 0 6 5 7 10 4 6 -3 10 -11 10 -16z m30 -11 c0
-25 -3 -29 -10 -18 -8 12 -10 12 -10 1 0 -8 -2 -12 -5 -9 -4 4 16 58 23 58 1
0 2 -15 2 -32z m69 12 c-8 -6 -8 -9 0 -14 14 -9 14 -26 1 -26 -5 0 -9 6 -7 13
1 6 -6 11 -15 11 -10 -1 -15 2 -12 7 3 5 0 9 -5 9 -6 0 -11 -5 -11 -12 0 -6
-3 -9 -6 -5 -12 12 6 24 36 24 17 0 26 -4 19 -7z m36 1 c-8 -14 10 -22 30 -15
13 6 14 9 3 16 -10 8 -10 9 2 6 8 -3 17 -15 21 -29 7 -23 7 -23 8 -2 1 26 17
38 27 22 4 -8 3 -9 -4 -5 -7 4 -12 1 -12 -8 0 -9 5 -16 10 -16 6 0 10 -4 10
-9 0 -4 -15 -6 -32 -3 -18 2 -44 4 -57 4 -16 0 -20 3 -11 8 8 5 9 9 1 14 -14
9 -14 26 0 26 5 0 8 -4 4 -9z m133 -9 c2 -7 -3 -12 -12 -12 -9 0 -16 7 -16 16
0 17 22 14 28 -4z m34 -17 c0 -5 -5 -10 -11 -11 -8 -2 -7 -1 0 3 8 4 7 8 -2
15 -11 8 -11 9 -1 6 8 -2 14 -8 14 -13z m-440 -260 l-4 -45 37 0 37 0 -4 40
c-2 22 0 40 4 40 5 0 8 -20 8 -45 l0 -45 -45 0 -45 0 0 43 c0 35 6 57 14 57 1
0 0 -20 -2 -45z m125 -7 c-3 -7 -5 -2 -5 12 0 14 2 19 5 13 2 -7 2 -19 0 -25z
m-90 -15 c-3 -10 -5 -4 -5 12 0 17 2 24 5 18 2 -7 2 -21 0 -30z m158 28 c3 -5
1 -12 -5 -16 -6 -4 -8 -11 -5 -16 4 -5 2 -9 -3 -9 -12 0 -24 29 -16 41 7 12
21 12 29 0z m42 -7 c7 -20 -12 -41 -22 -23 -5 8 -4 10 3 5 7 -4 12 -1 12 8 0
8 -6 17 -12 19 -10 4 -10 6 0 6 7 1 15 -6 19 -15z m86 9 c-13 -3 -23 -12 -23
-20 0 -9 -3 -13 -7 -10 -3 4 -12 2 -19 -4 -8 -7 -14 -7 -19 1 -14 22 3 36 46
36 24 1 34 -1 22 -3z m48 -2 c-9 -6 -10 -11 -2 -15 13 -9 5 -26 -12 -26 -8 0
-8 3 2 9 9 6 10 11 2 15 -17 11 -13 26 7 26 13 0 14 -2 3 -9z m-354 -33 c-3
-7 -5 -2 -5 12 0 14 2 19 5 13 2 -7 2 -19 0 -25z m136 12 c3 -11 1 -18 -4 -14
-5 3 -9 12 -9 20 0 20 7 17 13 -6z m-92 -236 c24 -8 20 -68 -5 -72 -12 -3 -16
0 -11 7 3 6 10 9 14 7 14 -9 6 39 -9 51 -22 17 -34 4 -13 -14 10 -8 13 -12 6
-9 -6 4 -14 2 -18 -4 -3 -5 1 -10 11 -10 13 0 14 -3 4 -15 -6 -8 -9 -19 -5
-25 3 -5 1 -10 -4 -10 -6 0 -11 5 -11 10 0 6 -7 10 -15 10 -10 0 -15 11 -15
35 0 24 5 35 15 35 8 0 15 5 15 11 0 6 6 8 13 5 6 -3 19 -9 28 -12z m84 -54
c-3 -6 -12 -10 -18 -10 -7 0 -6 4 3 11 11 8 12 12 3 16 -7 2 -13 12 -13 21 0
13 4 11 16 -6 8 -12 12 -27 9 -32z m45 29 c0 -5 -4 -7 -10 -4 -5 3 -10 0 -10
-9 0 -8 5 -17 10 -19 6 -3 5 -4 -2 -3 -20 4 -23 46 -4 46 9 0 16 -5 16 -11z
m50 7 c0 -2 -9 -6 -20 -9 -11 -3 -20 -1 -20 4 0 5 9 9 20 9 11 0 20 -2 20 -4z
m54 -4 c-6 -4 -14 -14 -17 -22 -4 -10 -6 -8 -6 8 -1 15 5 22 17 22 10 0 13 -3
6 -8z m31 -2 c-3 -5 -1 -10 4 -10 6 0 11 4 11 8 0 4 10 8 23 9 12 0 16 -1 8
-4 -11 -5 -11 -7 0 -15 10 -7 8 -8 -8 -3 -15 4 -26 0 -36 -15 -12 -18 -15 -19
-21 -5 -4 11 -2 14 6 9 7 -5 9 -2 5 8 -3 9 -3 19 0 22 10 10 15 7 8 -4z m-68
-22 c-3 -8 -6 -5 -6 6 -1 11 2 17 5 13 3 -3 4 -12 1 -19z"/>
<path d="M140 3660 c-41 -41 -12 -120 45 -120 59 0 86 77 42 118 -29 27 -61
28 -87 2z m30 -31 c0 -5 -7 -9 -15 -9 -15 0 -20 12 -9 23 8 8 24 -1 24 -14z
m51 -2 c-13 -13 -26 -3 -16 12 3 6 11 8 17 5 6 -4 6 -10 -1 -17z m-1 -52 c-7
-8 -23 -15 -35 -15 -12 0 -28 7 -35 15 -11 13 -6 15 35 15 41 0 46 -2 35 -15z"/>
<path d="M416 3635 c-8 -21 3 -45 20 -45 9 0 14 11 14 30 0 32 -23 42 -34 15z"/>
<path d="M604 3636 c-8 -22 3 -49 19 -43 6 2 12 14 12 27 0 27 -22 39 -31 16z"/>
<path d="M110 3195 c0 -8 5 -15 10 -15 6 0 10 7 10 15 0 8 -4 15 -10 15 -5 0
-10 -7 -10 -15z"/>
<path d="M410 3170 c0 -5 5 -10 10 -10 6 0 10 5 10 10 0 6 -4 10 -10 10 -5 0
-10 -4 -10 -10z"/>
<path d="M570 3170 c0 -5 5 -10 10 -10 6 0 10 5 10 10 0 6 -4 10 -10 10 -5 0
-10 -4 -10 -10z"/>
<path d="M100 2640 c0 -16 7 -20 30 -20 23 0 30 4 30 20 0 16 -7 20 -30 20
-23 0 -30 -4 -30 -20z"/>
<path d="M370 2336 c0 -9 5 -16 10 -16 6 0 10 4 10 9 0 6 -4 13 -10 16 -5 3
-10 -1 -10 -9z"/>
<path d="M410 2335 c0 -8 5 -15 10 -15 6 0 10 7 10 15 0 8 -4 15 -10 15 -5 0
-10 -7 -10 -15z"/>
<path d="M100 2052 c0 -31 2 -32 40 -32 36 0 40 2 40 25 0 23 -2 24 -21 15
-16 -9 -25 -8 -40 6 -18 17 -19 16 -19 -14z"/>
<path d="M280 1779 c0 -5 5 -7 10 -4 6 3 10 8 10 11 0 2 -4 4 -10 4 -5 0 -10
-5 -10 -11z"/>
<path d="M370 1774 c0 -8 5 -12 10 -9 6 3 10 10 10 16 0 5 -4 9 -10 9 -5 0
-10 -7 -10 -16z"/>
<path d="M110 1495 c0 -17 6 -25 17 -25 13 0 14 3 6 11 -6 6 -9 18 -6 25 3 8
0 14 -6 14 -6 0 -11 -11 -11 -25z"/>
<path d="M6646 3744 c-22 -22 -20 -31 2 -11 23 21 36 21 56 1 9 -8 16 -11 16
-5 0 11 -32 31 -49 31 -5 0 -17 -7 -25 -16z"/>
<path d="M1203 3734 c-8 -23 10 -49 34 -49 11 0 28 -7 38 -15 18 -14 18 -13 0
12 -15 19 -23 23 -33 15 -17 -14 -37 6 -28 28 4 11 13 15 26 12 11 -3 18 -1
14 4 -9 15 -44 10 -51 -7z"/>
<path d="M6383 3738 c-6 -7 -13 -25 -15 -40 -5 -26 -3 -28 28 -28 29 0 34 3
34 24 0 14 -7 32 -16 40 -19 19 -19 19 -31 4z m37 -39 c0 -12 -7 -19 -20 -19
-14 0 -20 7 -20 23 0 13 3 27 7 30 10 11 33 -13 33 -34z"/>
<path d="M6492 3738 c2 -6 15 -18 29 -26 l24 -14 -25 21 -25 21 39 0 c33 0 37
-2 26 -15 -11 -13 -10 -14 4 -9 12 5 16 0 16 -20 0 -24 -3 -26 -47 -28 l-48
-1 44 -4 c54 -5 65 5 57 51 -7 35 -8 36 -52 36 -30 0 -44 -4 -42 -12z"/>
<path d="M6665 3730 c-4 -6 -3 -16 3 -22 6 -6 12 -6 17 2 4 6 3 16 -3 22 -6 6
-12 6 -17 -2z"/>
<path d="M6637 3673 c6 -14 42 -28 50 -19 4 3 -1 6 -10 6 -9 0 -17 5 -17 10 0
13 23 13 37 -1 8 -8 13 -8 17 0 4 6 -1 12 -11 13 -58 5 -70 3 -66 -9z"/>
<path d="M1150 3315 c0 -24 5 -35 14 -35 29 0 46 13 46 35 0 22 -17 35 -46 35
-9 0 -14 -11 -14 -35z m42 13 c6 -17 -1 -38 -13 -38 -5 0 -9 11 -9 25 0 26 14
34 22 13z"/>
<path d="M1237 3343 c-2 -4 -7 -21 -11 -37 -6 -26 -5 -28 8 -17 12 10 19 11
30 2 11 -9 12 -6 7 21 -6 30 -24 47 -34 31z m23 -23 c0 -5 -4 -10 -10 -10 -5
0 -10 5 -10 10 0 6 5 10 10 10 6 0 10 -4 10 -10z"/>
<path d="M1294 3338 c-4 -6 0 -16 9 -23 22 -16 21 -22 0 -28 -14 -4 -12 -5 5
-6 27 -1 31 33 5 44 -17 7 -16 8 2 15 16 7 17 9 3 9 -9 1 -20 -4 -24 -11z"/>
<path d="M1352 3315 c0 -22 2 -32 5 -22 2 9 11 17 18 17 7 0 16 -8 18 -17 3
-10 5 0 5 22 0 22 -2 32 -5 23 -2 -10 -11 -18 -18 -18 -7 0 -16 8 -18 18 -3 9
-5 -1 -5 -23z"/>
<path d="M1420 3315 c0 -31 3 -35 25 -35 22 0 25 4 25 35 0 31 -3 35 -25 35
-22 0 -25 -4 -25 -35z m35 15 c-3 -5 -10 -10 -16 -10 -5 0 -9 5 -9 10 0 6 7
10 16 10 8 0 12 -4 9 -10z m5 -30 c0 -5 -7 -10 -15 -10 -8 0 -15 5 -15 10 0 6
7 10 15 10 8 0 15 -4 15 -10z"/>
<path d="M1492 3318 c2 -28 7 -33 28 -33 21 0 25 5 25 30 0 25 -4 30 -28 33
-27 3 -28 1 -25 -30z m40 16 c3 -3 4 -14 1 -25 -8 -28 -33 -24 -33 6 0 23 18
34 32 19z"/>
<path d="M1571 3319 c-13 -39 -14 -49 -1 -29 8 12 13 13 30 2 11 -7 20 -11 20
-9 0 15 -24 67 -30 67 -4 0 -13 -14 -19 -31z m29 1 c0 -5 -4 -10 -10 -10 -5 0
-10 5 -10 10 0 6 5 10 10 10 6 0 10 -4 10 -10z"/>
<path d="M1630 3316 c0 -20 5 -36 10 -36 6 0 10 8 10 18 1 16 1 16 11 0 5 -10
15 -18 20 -18 6 0 7 5 2 13 -4 6 -8 21 -8 32 0 13 -8 21 -22 23 -20 3 -23 -1
-23 -32z m40 20 c0 -3 -4 -8 -10 -11 -5 -3 -10 -1 -10 4 0 6 5 11 10 11 6 0
10 -2 10 -4z"/>
<path d="M1700 3315 c0 -28 4 -35 20 -35 25 0 41 30 29 53 -6 9 -19 17 -29 17
-16 0 -20 -7 -20 -35z m35 0 c0 -10 -6 -20 -12 -22 -8 -3 -13 5 -13 22 0 17 5
25 13 23 6 -3 12 -13 12 -23z"/>
<path d="M1187 3037 c-26 -24 -37 -44 -42 -77 -3 -25 -5 -192 -3 -372 3 -312
4 -328 24 -355 47 -65 31 -63 654 -63 518 0 568 1 600 18 68 34 70 45 70 434
0 299 -2 352 -16 381 -33 70 -6 67 -662 67 l-591 0 -34 -33z m1130 -163 c-3
-20 0 -23 27 -26 38 -4 44 -27 21 -81 -16 -38 -16 -38 -68 -35 l-52 3 -1 55
c-1 48 3 59 29 87 33 35 51 34 44 -3z m-1047 -54 c0 -20 5 -30 15 -30 8 0 15
-4 15 -10 0 -5 -11 -10 -25 -10 -22 0 -25 4 -25 40 0 22 5 40 10 40 6 0 10
-13 10 -30z m52 -32 c-9 -20 -11 -18 -11 22 0 40 2 42 11 23 8 -17 8 -29 0
-45z m38 50 c0 -9 3 -9 12 0 14 14 78 16 78 2 0 -5 -6 -10 -12 -10 -9 0 -8 -4
2 -10 13 -9 13 -11 0 -20 -10 -6 -11 -10 -2 -10 6 0 12 -4 12 -10 0 -18 -68
-11 -79 8 -10 16 -10 16 -11 0 0 -10 -4 -18 -10 -18 -5 0 -10 18 -10 40 0 22
5 40 10 40 6 0 10 -5 10 -12z m140 2 c0 -5 -5 -10 -12 -10 -7 0 -6 -6 4 -17 9
-10 13 -24 11 -30 -6 -15 -43 -17 -43 -3 0 6 5 10 11 10 8 0 8 5 -1 15 -7 8
-10 22 -6 30 6 17 36 21 36 5z m730 -55 c0 -48 -2 -55 -20 -55 -18 0 -20 7
-20 55 0 48 2 55 20 55 18 0 20 -7 20 -55z m-920 -287 c0 -13 3 -32 5 -43 6
-24 -13 -57 -22 -37 -2 6 -13 12 -24 12 -25 0 -24 24 2 61 24 35 39 37 39 7z
m108 10 c17 -17 15 -73 -4 -89 -35 -29 -69 34 -44 81 12 23 30 26 48 8z m79
-5 c4 -9 -1 -29 -9 -44 -13 -23 -14 -27 -2 -22 8 3 14 -1 14 -11 0 -12 -10
-16 -35 -16 -19 0 -35 3 -35 6 0 3 11 20 25 36 26 31 26 51 0 41 -8 -3 -15 -1
-15 4 0 27 47 32 57 6z m63 -38 c0 -30 -4 -55 -10 -55 -5 0 -10 16 -10 35 0
26 -4 35 -17 35 -14 0 -14 2 2 20 28 31 35 24 35 -35z m-210 -34 c0 -19 -12
-41 -20 -36 -10 6 -1 45 11 45 5 0 9 -4 9 -9z"/>
<path d="M2277 2852 c-10 -11 -17 -36 -17 -60 0 -42 0 -42 38 -42 32 0 41 5
50 25 20 44 15 55 -24 55 -31 0 -36 3 -31 20 6 25 4 25 -16 2z"/>
<path d="M1386 2824 c-3 -9 -2 -23 4 -32 7 -14 9 -10 10 16 0 35 -5 41 -14 16z"/>
<path d="M1270 2459 c0 -5 5 -7 10 -4 6 3 10 8 10 11 0 2 -4 4 -10 4 -5 0 -10
-5 -10 -11z"/>
<path d="M1387 2493 c-11 -10 -8 -53 3 -53 6 0 10 14 10 30 0 31 -2 35 -13 23z"/>
<path d="M2633 3050 c-57 -34 -59 -49 -58 -437 0 -339 1 -352 21 -380 47 -64
32 -63 644 -63 350 0 569 4 592 10 22 6 46 23 58 40 20 29 21 40 20 402 0 346
-2 375 -19 398 -37 50 -27 50 -646 50 -559 0 -581 -1 -612 -20z m1137 -160 c0
-5 -25 -10 -55 -10 -30 0 -55 5 -55 10 0 6 25 10 55 10 30 0 55 -4 55 -10z
m13 -35 c-2 -5 -32 -11 -68 -13 -55 -2 -65 0 -65 13 0 14 11 16 68 13 38 -2
66 -7 65 -13z m-1021 -37 l1 -33 4 33 c3 19 10 32 19 32 14 0 19 -35 8 -64 -7
-18 -39 -21 -50 -5 -4 8 -9 8 -17 0 -14 -14 -47 -14 -47 -1 0 6 8 10 17 10 15
0 15 1 -2 14 -28 21 -12 46 30 46 33 0 35 -2 37 -32z m98 -8 c0 -36 -2 -40
-25 -40 -22 0 -25 4 -25 40 0 36 3 40 25 40 23 0 25 -4 25 -40z m60 30 c0 -5
-8 -10 -17 -10 -15 0 -16 -2 -3 -10 11 -7 19 -5 29 10 14 21 51 28 51 10 0 -5
-7 -10 -15 -10 -8 0 -15 -9 -15 -20 0 -11 7 -20 15 -20 8 0 15 -4 15 -10 0
-16 -40 -11 -47 6 -5 15 -7 15 -15 0 -10 -17 -48 -22 -48 -6 0 6 8 10 17 10
15 0 15 1 -2 14 -23 16 -14 46 15 46 11 0 20 -4 20 -10z m114 4 c18 -7 22 -34
5 -34 -8 0 -7 -5 1 -15 7 -9 10 -18 7 -22 -4 -3 -13 0 -22 7 -10 8 -15 9 -15
1 0 -6 -4 -11 -10 -11 -5 0 -10 18 -10 40 0 41 9 47 44 34z m46 -34 c0 -22 -4
-40 -10 -40 -5 0 -10 18 -10 40 0 22 5 40 10 40 6 0 10 -18 10 -40z m59 10 l4
-25 6 25 c7 25 51 43 51 21 0 -6 -8 -12 -17 -12 -17 -1 -17 -2 0 -6 9 -2 17
-9 17 -14 0 -5 -8 -10 -17 -10 -17 -1 -17 -2 0 -6 9 -2 17 -9 17 -14 0 -14
-50 -11 -51 4 0 10 -2 10 -6 0 -2 -7 -16 -13 -29 -13 -21 0 -24 4 -24 41 0 36
2 40 23 37 15 -2 23 -11 26 -28z m117 5 c1 -11 2 -25 3 -32 1 -6 10 -9 21 -6
19 5 19 6 4 18 -22 16 -11 45 16 45 24 0 27 -20 3 -20 -17 -1 -17 -2 1 -15 11
-8 16 -21 13 -30 -8 -18 -58 -20 -75 -3 -9 9 -12 9 -12 0 0 -7 -4 -12 -10 -12
-5 0 -10 18 -10 41 0 36 2 40 23 37 14 -2 23 -10 23 -23z m544 -50 l0 -55 -85
0 -85 0 0 55 0 55 85 0 85 0 0 -55z m-1060 -270 c10 -12 10 -19 2 -27 -8 -8
-9 -15 -1 -25 16 -18 -8 -45 -35 -41 -17 2 -21 11 -23 43 -1 22 0 46 2 53 6
17 40 15 55 -3z m120 8 c0 -24 -36 -103 -47 -103 -16 0 -16 3 1 45 14 33 14
35 -4 35 -20 0 -33 13 -23 24 9 9 73 8 73 -1z m65 -25 c1 -15 4 -30 8 -34 14
-15 -14 -45 -40 -42 -37 4 -42 28 -6 29 17 1 21 3 11 6 -19 5 -25 33 -8 33 6
0 10 4 10 10 0 5 -7 7 -15 4 -10 -4 -15 0 -15 11 0 12 7 16 28 13 22 -2 27 -8
27 -30z m65 -23 c0 -30 -4 -55 -10 -55 -5 0 -10 16 -10 36 0 19 -4 33 -9 29
-19 -11 -24 18 -6 32 30 21 35 16 35 -42z m-210 -37 c0 -7 -4 -19 -9 -27 -11
-17 -23 1 -15 23 7 19 24 21 24 4z"/>
<path d="M2700 2826 c0 -2 7 -9 15 -16 12 -10 15 -10 15 4 0 9 -7 16 -15 16
-8 0 -15 -2 -15 -4z"/>
<path d="M3650 2775 l0 -35 65 0 65 0 0 35 0 35 -65 0 -65 0 0 -35z m83 10
c18 -13 18 -14 -2 -24 -27 -15 -28 -14 -33 14 -6 28 7 32 35 10z"/>
<path d="M2705 2440 c3 -5 8 -10 11 -10 2 0 4 5 4 10 0 6 -5 10 -11 10 -5 0
-7 -4 -4 -10z"/>
<path d="M4062 3050 c-18 -11 -37 -32 -42 -46 -6 -15 -10 -177 -10 -388 0
-353 1 -364 21 -390 11 -14 29 -31 39 -36 12 -6 236 -10 599 -11 624 -1 614
-2 653 51 17 24 19 50 19 385 0 230 -3 370 -10 387 -6 16 -25 37 -43 48 -32
19 -51 20 -613 20 -562 0 -581 -1 -613 -20z m75 -200 c13 0 23 -4 23 -10 0 -5
-8 -10 -17 -10 -15 0 -16 -2 -3 -10 10 -6 17 -4 24 8 24 45 69 30 64 -21 -2
-25 -8 -33 -28 -36 -14 -1 -28 -8 -33 -15 -4 -6 -6 -1 -5 13 2 16 -3 25 -14
26 -10 2 -18 -3 -18 -11 0 -8 -4 -14 -10 -14 -5 0 -10 17 -10 38 0 21 -4 43
-10 50 -7 9 -7 9 2 2 7 -5 22 -10 35 -10z m355 7 c-7 -8 -7 -18 -2 -27 8 -13
10 -12 10 3 0 9 5 17 10 17 6 0 11 -8 11 -17 1 -17 2 -17 6 0 5 18 43 24 43 7
0 -5 -6 -10 -12 -10 -9 0 -8 -4 2 -10 11 -7 12 -12 4 -17 -9 -6 -8 -12 2 -21
12 -11 14 -6 14 28 0 37 2 41 23 38 16 -2 24 -12 28 -38 4 -19 7 -30 8 -23 0
7 9 10 19 7 16 -5 16 -5 0 6 -22 13 -23 33 -4 49 11 9 18 8 30 -4 21 -21 20
-26 -1 -18 -15 5 -16 4 -7 -8 6 -8 13 -23 16 -34 4 -18 1 -20 -31 -17 -20 3
-42 9 -50 16 -12 9 -14 8 -9 -5 5 -13 0 -15 -29 -12 -19 2 -41 -2 -49 -8 -11
-9 -14 -9 -14 1 0 7 -8 10 -19 7 -15 -4 -18 -1 -13 12 5 14 3 14 -11 3 -20
-17 -37 -8 -38 21 -1 20 -2 20 -8 -3 -6 -22 -13 -25 -61 -27 -59 -2 -70 5 -70
50 0 17 5 27 15 27 10 0 15 -10 15 -30 0 -20 5 -30 15 -30 9 0 15 9 15 25 0
27 29 48 50 35 7 -4 23 -5 34 -1 12 5 26 6 33 4 6 -2 14 1 18 6 3 6 9 11 12
11 3 0 1 -6 -5 -13z m678 -2 c10 -12 10 -18 1 -29 -10 -12 -8 -17 11 -27 19
-9 21 -9 11 2 -9 9 -10 16 -2 26 19 22 39 15 39 -13 0 -20 4 -24 19 -19 18 5
18 3 8 -19 -7 -14 -20 -26 -29 -26 -22 -1 -141 -1 -168 -1 -16 1 -20 8 -20 34
0 24 3 28 10 17 8 -12 10 -9 10 13 0 17 5 27 15 27 13 0 20 -19 16 -43 -1 -4
8 -3 19 3 19 10 19 12 5 27 -14 14 -14 16 2 29 24 18 38 17 53 -1z m-910 -35
c0 -20 5 -30 15 -30 8 0 15 -4 15 -10 0 -5 -11 -10 -25 -10 -22 0 -25 4 -25
40 0 22 5 40 10 40 6 0 10 -13 10 -30z m175 -60 c3 -5 1 -10 -4 -10 -6 0 -11
5 -11 10 0 6 2 10 4 10 3 0 8 -4 11 -10z m-265 -274 c0 -11 5 -28 10 -36 15
-23 44 1 45 36 0 22 5 30 23 32 24 4 59 -23 42 -33 -5 -3 -10 -14 -10 -23 0
-10 9 -4 24 18 13 19 22 39 19 43 -3 5 4 4 14 -2 22 -11 40 -84 23 -89 -6 -2
-8 -8 -4 -13 3 -5 -2 -9 -10 -9 -9 0 -16 5 -16 10 0 6 -9 10 -19 10 -11 0 -23
-4 -26 -10 -9 -14 -52 -13 -61 2 -5 7 -10 4 -15 -10 -11 -29 -29 -28 -30 1 0
12 -3 16 -6 10 -8 -20 -61 -16 -72 6 -9 16 -7 18 17 14 15 -1 21 0 15 3 -7 3
-13 12 -13 19 0 7 6 16 13 18 7 3 6 6 -5 6 -27 1 -31 20 -6 30 28 11 48 -3 48
-33z m254 18 c3 -9 6 -33 6 -55 0 -28 -4 -39 -15 -39 -11 0 -15 11 -15 36 0
19 -4 33 -9 29 -19 -11 -24 18 -6 32 24 17 32 17 39 -3z m-226 -49 c-3 -3 -9
2 -12 12 -6 14 -5 15 5 6 7 -7 10 -15 7 -18z"/>
<path d="M4185 2820 c-7 -12 2 -30 16 -30 5 0 9 9 9 20 0 21 -15 27 -25 10z"/>
<path d="M4451 2834 c0 -11 3 -14 6 -6 3 7 2 16 -1 19 -3 4 -6 -2 -5 -13z"/>
<path d="M4374 2819 c-3 -6 -2 -15 4 -21 6 -6 12 -6 17 3 6 8 4 10 -5 4 -10
-6 -12 -4 -7 8 7 19 2 23 -9 6z"/>
<path d="M4517 2803 c-10 -9 -9 -33 1 -33 4 0 8 9 8 20 0 23 0 22 -9 13z"/>
<path d="M5081 2764 c0 -11 3 -14 6 -6 3 7 2 16 -1 19 -3 4 -6 -2 -5 -13z"/>
<path d="M5485 3048 c-53 -41 -55 -58 -55 -425 0 -313 2 -341 20 -381 34 -74
14 -72 656 -72 640 0 620 -2 655 74 17 37 19 71 19 371 0 195 -4 345 -10 367
-6 20 -24 48 -41 62 l-31 26 -592 0 -593 0 -28 -22z m1135 -198 l0 -50 -47 0
c-29 0 -53 -6 -65 -17 -17 -15 -18 -13 -18 50 l0 67 65 0 65 0 0 -50z m40 -56
c0 -50 -3 -63 -12 -57 -7 4 -37 10 -67 13 -76 7 -81 30 -7 30 l56 0 0 40 c0
29 4 40 15 40 12 0 15 -14 15 -66z m-1089 25 l6 -24 8 28 c11 43 35 34 35 -13
0 -38 -19 -58 -21 -22 -1 16 -2 16 -6 0 -5 -21 -23 -24 -24 -5 0 10 -2 10 -6
0 -10 -27 -23 -11 -23 28 0 45 20 50 31 8z m109 21 c0 -5 -8 -10 -17 -10 -16
-1 -16 -2 2 -12 19 -11 19 -11 0 -19 -17 -7 -18 -8 -2 -8 27 -1 20 -21 -8 -21
-22 0 -25 4 -25 40 0 36 3 40 25 40 14 0 25 -4 25 -10z m50 0 c0 -5 -8 -10
-17 -10 -17 -1 -17 -1 0 -11 24 -14 22 -49 -3 -49 -11 0 -20 5 -20 11 0 5 5 7
10 4 6 -3 10 -2 10 4 0 5 -4 13 -10 16 -19 12 -11 45 10 45 11 0 20 -4 20 -10z
m50 0 c0 -5 -5 -10 -12 -10 -9 0 -9 -3 0 -12 19 -19 15 -48 -8 -48 -11 0 -20
5 -20 10 0 6 8 10 17 10 15 0 15 1 -2 14 -11 8 -16 19 -12 30 7 17 37 23 37 6z
m66 -33 c13 -38 8 -47 -14 -25 -10 10 -15 10 -22 -2 -16 -25 -22 -3 -10 35 14
44 29 41 46 -8z m74 33 c0 -5 -9 -10 -20 -10 -22 0 -28 -34 -9 -46 8 -4 9 1 4
16 -5 16 -4 21 6 18 8 -3 15 -15 17 -27 3 -19 0 -22 -25 -19 -48 5 -41 78 8
78 11 0 19 -4 19 -10z m60 0 c0 -5 -8 -11 -17 -11 -17 -1 -17 -2 0 -6 22 -6
22 -23 0 -23 -15 0 -14 -2 3 -15 18 -14 18 -14 -8 -15 -26 0 -28 3 -28 40 0
36 3 40 25 40 14 0 25 -4 25 -10z m50 0 c0 -5 -8 -10 -17 -10 -17 -1 -17 -1 0
-11 24 -14 22 -49 -3 -49 -11 0 -20 5 -20 10 0 6 5 10 12 10 7 0 6 6 -4 18 -9
9 -13 23 -11 30 6 14 43 16 43 2z m-440 -375 c0 -42 -3 -55 -15 -55 -10 0 -15
10 -15 34 0 19 -6 37 -12 40 -9 3 -7 9 6 20 31 25 36 20 36 -39z m121 34 l11
-21 14 21 c9 12 22 21 30 21 20 0 18 -16 -3 -25 -16 -6 -15 -8 5 -16 39 -15
25 -69 -19 -69 -6 0 -16 15 -24 33 -11 24 -14 27 -15 12 0 -26 -18 -45 -42
-45 -25 0 -22 17 4 26 l23 7 -23 8 c-21 8 -31 47 -15 62 13 14 43 6 54 -14z
m148 2 c8 -14 6 -25 -9 -44 -12 -15 -15 -24 -7 -23 6 0 14 -3 17 -9 3 -5 -10
-11 -27 -13 -39 -4 -43 11 -12 44 22 24 18 47 -6 37 -8 -3 -15 -1 -15 4 0 28
45 31 59 4z m-219 -69 c0 -5 -7 -17 -15 -28 -15 -19 -20 -8 -9 20 6 17 24 22
24 8z"/>
<path d="M6510 2850 c0 -29 2 -30 45 -30 43 0 45 1 45 30 0 29 -2 30 -45 30
-43 0 -45 -1 -45 -30z"/>
<path d="M5670 2480 c0 -5 5 -10 10 -10 6 0 10 5 10 10 0 6 -4 10 -10 10 -5 0
-10 -4 -10 -10z"/>
<path d="M5750 2450 c0 -5 5 -10 10 -10 6 0 10 5 10 10 0 6 -4 10 -10 10 -5 0
-10 -4 -10 -10z"/>
<path d="M4072 2017 c-12 -13 -24 -37 -28 -54 -8 -40 12 -100 37 -114 27 -14
91 -14 117 0 26 14 46 74 38 114 -10 51 -42 77 -96 77 -36 0 -52 -5 -68 -23z
m101 -43 c20 -7 10 -51 -16 -69 -23 -16 -62 -21 -53 -6 3 4 1 22 -4 40 -9 34
-8 36 20 21 13 -7 19 -6 24 5 6 17 8 17 29 9z"/>
<path d="M5467 2020 c-15 -12 -29 -36 -33 -55 -7 -42 11 -102 36 -115 22 -12
100 -13 115 -2 54 38 51 152 -5 182 -31 16 -85 12 -113 -10z m94 -30 c22 -12
27 -78 7 -98 -20 -20 -76 -15 -88 7 -33 63 20 123 81 91z"/>
<path d="M5497 1973 c-4 -3 -7 -22 -7 -40 0 -33 1 -34 38 -31 32 3 37 7 40 31
2 15 -2 27 -8 27 -6 0 -8 5 -5 10 7 11 -47 14 -58 3z m53 -19 c11 -12 10 -18
-3 -31 -8 -9 -23 -13 -31 -10 -19 8 -21 43 -3 50 20 9 24 8 37 -9z"/>
<path d="M5520 1935 c0 -8 5 -15 10 -15 6 0 10 7 10 15 0 8 -4 15 -10 15 -5 0
-10 -7 -10 -15z"/>
<path d="M4130 1679 c0 -5 5 -7 10 -4 6 3 15 3 21 0 6 -4 0 -19 -15 -40 -15
-19 -26 -36 -26 -39 0 -10 59 -6 65 4 3 6 -4 10 -16 10 -21 0 -21 1 -6 18 27
29 22 62 -8 62 -14 0 -25 -5 -25 -11z"/>
<path d="M4218 1683 c26 -5 26 -2 7 -46 -17 -42 -18 -47 -7 -47 4 0 14 17 21
38 8 20 16 43 18 50 4 8 -5 12 -28 11 -24 -1 -27 -3 -11 -6z"/>
<path d="M4288 1659 c-23 -39 -23 -49 1 -49 11 0 22 -6 24 -12 7 -18 29 12 22
30 -3 8 -5 25 -5 38 0 33 -22 30 -42 -7z m18 -26 c-10 -10 -19 5 -10 18 6 11
8 11 12 0 2 -7 1 -15 -2 -18z"/>
<path d="M5515 1680 c4 -6 11 -8 16 -5 5 4 14 3 21 -1 8 -5 6 -11 -6 -19 -15
-11 -15 -13 -1 -19 22 -8 9 -26 -18 -26 -15 0 -18 -3 -10 -11 6 -6 20 -8 31
-5 16 6 20 15 20 51 -1 43 -3 45 -30 45 -17 0 -27 -4 -23 -10z"/>
<path d="M5590 1665 c0 -18 5 -25 20 -25 11 0 20 -7 20 -15 0 -9 -9 -15 -22
-15 -16 0 -19 -3 -11 -11 8 -8 17 -8 32 0 26 15 27 37 1 53 -25 16 -25 25 -2
31 10 3 6 5 -10 6 -23 1 -28 -3 -28 -24z"/>
<path d="M5670 1680 c0 -5 6 -7 14 -4 25 10 25 -12 0 -41 -13 -15 -24 -31 -24
-35 0 -11 59 -10 65 1 4 5 -3 9 -14 9 -25 0 -27 13 -6 30 25 21 19 50 -10 50
-14 0 -25 -4 -25 -10z"/>
<path d="M4068 1660 c-10 -11 -13 -20 -8 -20 6 0 10 -7 10 -15 0 -8 5 -15 10
-15 6 0 10 7 10 15 0 8 6 15 13 15 8 0 9 3 1 8 -6 4 -13 13 -15 20 -3 9 -9 6
-21 -8z"/>
<path d="M5460 1666 c0 -8 -6 -17 -12 -19 -10 -4 -10 -6 0 -6 6 -1 12 -8 12
-16 0 -8 5 -15 11 -15 5 0 8 4 4 9 -3 6 3 14 12 20 17 10 17 10 0 11 -10 0
-16 4 -12 9 3 5 1 12 -5 16 -5 3 -10 0 -10 -9z"/>
<path d="M1261 1608 c-1 -30 3 -38 17 -38 11 0 13 3 5 8 -6 4 -13 21 -16 37
-4 27 -4 27 -6 -7z"/>
<path d="M1592 1608 c-1 -21 3 -38 11 -41 25 -9 37 5 35 42 l-1 36 -4 -32 c-3
-19 -10 -33 -18 -33 -8 0 -15 14 -18 33 l-4 32 -1 -37z"/>
<path d="M1738 1621 c-30 -30 -22 -63 13 -54 14 4 19 14 19 39 0 38 -7 41 -32
15z m12 -26 c0 -8 -4 -15 -10 -15 -5 0 -10 7 -10 15 0 8 5 15 10 15 6 0 10 -7
10 -15z"/>
<path d="M1367 1624 c-7 -7 4 -54 15 -60 6 -4 7 2 3 16 -4 14 -3 25 5 30 8 5
8 9 -3 13 -8 3 -17 4 -20 1z"/>
<path d="M1517 1624 c-6 -7 4 -53 14 -59 4 -3 10 -1 14 5 3 5 1 10 -4 10 -15
0 -14 27 1 32 8 3 6 6 -4 10 -9 4 -18 5 -21 2z"/>
<path d="M1848 1625 c-6 -7 2 -54 11 -59 7 -5 7 52 -1 59 -2 3 -7 3 -10 0z"/>
<path d="M1325 1611 c19 -8 19 -8 -3 -15 -18 -6 -21 -11 -12 -21 6 -8 18 -11
26 -8 22 8 13 47 -11 50 l-20 3 20 -9z m15 -25 c0 -3 -4 -8 -10 -11 -5 -3 -10
-1 -10 4 0 6 5 11 10 11 6 0 10 -2 10 -4z"/>
<path d="M1417 1614 c-4 -4 -7 -15 -7 -25 0 -20 26 -33 36 -17 4 6 3 8 -4 4
-6 -3 -13 -2 -17 4 -3 6 3 10 15 10 13 0 20 5 18 13 -5 14 -31 21 -41 11z"/>
<path d="M1470 1605 c0 -8 5 -15 10 -15 6 0 10 -4 10 -10 0 -5 -8 -7 -17 -4
-15 5 -15 4 -3 -4 8 -6 18 -8 22 -6 13 8 9 34 -4 34 -9 0 -8 4 2 10 13 8 12
10 -2 10 -10 0 -18 -7 -18 -15z"/>
<path d="M1661 1578 c1 -24 3 -36 6 -27 2 10 13 19 24 22 28 7 21 41 -9 45
-20 3 -22 -1 -21 -40z m31 17 c0 -5 -5 -11 -11 -13 -6 -2 -11 4 -11 13 0 9 5
15 11 13 6 -2 11 -8 11 -13z"/>
<path d="M1798 1614 c10 -5 9 -9 -5 -19 -15 -12 -16 -16 -4 -27 12 -11 13 -10
8 5 -4 9 -2 17 3 17 6 0 10 -4 10 -10 0 -5 5 -10 11 -10 20 0 5 45 -16 47 -11
2 -14 0 -7 -3z"/>
<path d="M1884 1605 c-10 -24 22 -53 38 -36 11 10 10 11 -4 6 -11 -4 -18 -2
-18 4 0 6 7 11 16 11 20 0 13 24 -9 28 -10 2 -20 -4 -23 -13z"/>
<path d="M1940 1605 c0 -8 5 -15 10 -15 6 0 10 -5 10 -11 0 -5 -5 -7 -12 -3
-7 4 -8 3 -4 -4 7 -12 36 -5 36 9 0 5 -8 13 -17 16 -15 6 -15 7 3 14 17 7 17
8 -3 8 -14 1 -23 -5 -23 -14z"/>
<path d="M5927 1420 c-3 -11 -2 -22 2 -24 4 -3 8 6 9 20 2 29 -4 31 -11 4z"/>
<path d="M4052 1410 c0 -14 2 -19 5 -12 2 6 2 18 0 25 -3 6 -5 1 -5 -13z"/>
<path d="M4085 1419 c-4 -6 -4 -13 -1 -16 3 -4 6 -1 6 6 0 7 5 9 12 5 7 -4 8
-3 4 4 -9 15 -13 15 -21 1z"/>
<path d="M4283 1415 c-3 -9 -3 -19 1 -22 3 -4 6 1 6 11 0 10 5 14 12 10 7 -4
8 -3 4 4 -10 16 -15 15 -23 -3z"/>
<path d="M4396 1422 c-3 -5 1 -9 9 -9 8 0 12 4 9 9 -3 4 -7 8 -9 8 -2 0 -6 -4
-9 -8z"/>
<path d="M4747 1409 c4 -13 8 -18 11 -10 2 7 -1 18 -6 23 -8 8 -9 4 -5 -13z"/>
<path d="M4770 1422 c0 -5 7 -9 15 -9 8 0 12 4 9 9 -3 4 -9 8 -15 8 -5 0 -9
-4 -9 -8z"/>
<path d="M4833 1415 c-3 -9 -3 -19 1 -22 3 -4 6 1 6 11 0 10 5 14 12 10 7 -4
8 -3 4 4 -10 16 -15 15 -23 -3z"/>
<path d="M4925 1419 c-4 -6 -5 -12 -2 -15 2 -3 7 2 10 11 7 17 1 20 -8 4z"/>
<path d="M5017 1409 c6 -23 9 -24 16 -5 3 8 0 17 -7 19 -10 4 -12 -1 -9 -14z"/>
<path d="M5476 1422 c-3 -5 1 -9 9 -9 8 0 12 4 9 9 -3 4 -7 8 -9 8 -2 0 -6 -4
-9 -8z"/>
<path d="M5699 1413 c-13 -16 -12 -17 4 -4 16 13 21 21 13 21 -2 0 -10 -8 -17
-17z"/>
<path d="M5785 1420 c-3 -5 3 -7 12 -6 10 2 21 -4 25 -13 6 -13 7 -12 5 3 -2
19 -33 31 -42 16z"/>
<path d="M5956 1422 c-3 -5 1 -9 9 -9 8 0 12 4 9 9 -3 4 -7 8 -9 8 -2 0 -6 -4
-9 -8z"/>
<path d="M6035 1421 c-3 -5 -2 -12 3 -15 5 -3 9 1 9 9 0 17 -3 19 -12 6z"/>
<path d="M6186 1422 c-3 -5 1 -9 9 -9 8 0 12 4 9 9 -3 4 -7 8 -9 8 -2 0 -6 -4
-9 -8z"/>
<path d="M6223 1415 c-3 -9 -3 -18 -1 -21 3 -3 8 4 11 16 6 23 -1 27 -10 5z"/>
<path d="M6345 1419 c-4 -6 -5 -12 -2 -15 2 -3 7 2 10 11 7 17 1 20 -8 4z"/>
<path d="M6425 1421 c-3 -5 -2 -12 3 -15 5 -3 9 1 9 9 0 17 -3 19 -12 6z"/>
<path d="M1752 1400 c0 -14 2 -19 5 -12 2 6 2 18 0 25 -3 6 -5 1 -5 -13z"/>
<path d="M2562 1395 c0 -16 2 -22 5 -12 2 9 2 23 0 30 -3 6 -5 -1 -5 -18z"/>
<path d="M3692 1400 c0 -14 2 -19 5 -12 2 6 2 18 0 25 -3 6 -5 1 -5 -13z"/>
<path d="M4261 1404 c0 -11 3 -14 6 -6 3 7 2 16 -1 19 -3 4 -6 -2 -5 -13z"/>
<path d="M4351 1404 c0 -11 3 -14 6 -6 3 7 2 16 -1 19 -3 4 -6 -2 -5 -13z"/>
<path d="M4431 1404 c0 -11 3 -14 6 -6 3 7 2 16 -1 19 -3 4 -6 -2 -5 -13z"/>
<path d="M5651 1404 c0 -11 3 -14 6 -6 3 7 2 16 -1 19 -3 4 -6 -2 -5 -13z"/>
<path d="M6600 1411 c0 -6 4 -13 10 -16 6 -3 7 1 4 9 -7 18 -14 21 -14 7z"/>
<path d="M1482 1385 c0 -16 2 -22 5 -12 2 9 2 23 0 30 -3 6 -5 -1 -5 -18z"/>
<path d="M1731 1394 c0 -11 3 -14 6 -6 3 7 2 16 -1 19 -3 4 -6 -2 -5 -13z"/>
<path d="M1850 1401 c0 -6 4 -13 10 -16 6 -3 7 1 4 9 -7 18 -14 21 -14 7z"/>
<path d="M1970 1393 c0 -12 3 -14 8 -7 4 7 16 14 27 17 15 4 14 5 -7 6 -21 1
-28 -4 -28 -16z"/>
<path d="M2222 1390 c0 -14 2 -19 5 -12 2 6 2 18 0 25 -3 6 -5 1 -5 -13z"/>
<path d="M2361 1394 c0 -11 3 -14 6 -6 3 7 2 16 -1 19 -3 4 -6 -2 -5 -13z"/>
<path d="M2421 1394 c0 -11 3 -14 6 -6 3 7 2 16 -1 19 -3 4 -6 -2 -5 -13z"/>
<path d="M2521 1394 c0 -11 3 -14 6 -6 3 7 2 16 -1 19 -3 4 -6 -2 -5 -13z"/>
<path d="M3232 1390 c0 -14 2 -19 5 -12 2 6 2 18 0 25 -3 6 -5 1 -5 -13z"/>
<path d="M3261 1394 c0 -11 3 -14 6 -6 3 7 2 16 -1 19 -3 4 -6 -2 -5 -13z"/>
<path d="M3431 1394 c0 -11 3 -14 6 -6 3 7 2 16 -1 19 -3 4 -6 -2 -5 -13z"/>
<path d="M3461 1394 c0 -11 3 -14 6 -6 3 7 2 16 -1 19 -3 4 -6 -2 -5 -13z"/>
<path d="M2771 1374 c0 -11 3 -14 6 -6 3 7 2 16 -1 19 -3 4 -6 -2 -5 -13z"/>
<path d="M1322 1300 c0 -14 2 -19 5 -12 2 6 2 18 0 25 -3 6 -5 1 -5 -13z"/>
<path d="M1395 1310 c-8 -13 3 -30 18 -29 9 0 9 2 0 6 -7 2 -13 9 -13 14 0 6
5 7 12 3 7 -4 8 -3 4 4 -9 15 -13 15 -21 2z"/>
<path d="M1462 1300 c0 -14 2 -19 5 -12 2 6 2 18 0 25 -3 6 -5 1 -5 -13z"/>
<path d="M1484 1309 c-3 -6 -2 -15 3 -20 5 -5 9 -1 9 11 0 23 -2 24 -12 9z"/>
<path d="M1692 1300 c0 -14 2 -19 5 -12 2 6 2 18 0 25 -3 6 -5 1 -5 -13z"/>
<path d="M1850 1309 c0 -5 5 -7 10 -4 6 3 10 8 10 11 0 2 -4 4 -10 4 -5 0 -10
-5 -10 -11z"/>
<path d="M1894 1309 c-3 -6 -2 -15 3 -20 5 -5 9 -1 9 11 0 23 -2 24 -12 9z"/>
<path d="M2270 1312 c0 -5 7 -9 15 -9 8 0 12 4 9 9 -3 4 -9 8 -15 8 -5 0 -9
-4 -9 -8z"/>
<path d="M2433 1305 c-3 -9 -3 -19 1 -22 3 -4 6 1 6 11 0 10 5 14 12 10 7 -4
8 -3 4 4 -10 16 -15 15 -23 -3z"/>
<path d="M2532 1300 c0 -14 2 -19 5 -12 2 6 2 18 0 25 -3 6 -5 1 -5 -13z"/>
<path d="M2762 1300 c0 -14 2 -19 5 -12 2 6 2 18 0 25 -3 6 -5 1 -5 -13z"/>
<path d="M1642 1294 c-7 -8 -8 -14 -3 -14 10 0 25 19 20 25 -2 1 -10 -3 -17
-11z"/>
<path d="M4143 1293 c0 -9 4 -10 14 -2 7 6 13 12 13 14 0 1 -6 2 -13 2 -8 0
-14 -6 -14 -14z"/>
<path d="M4320 1300 c0 -5 5 -10 11 -10 5 0 7 5 4 10 -3 6 -8 10 -11 10 -2 0
-4 -4 -4 -10z"/>
<path d="M5476 1298 c3 -5 10 -6 15 -3 13 9 11 12 -6 12 -8 0 -12 -4 -9 -9z"/>
<path d="M5530 1292 c0 -12 3 -12 15 -2 8 7 15 13 15 15 0 1 -7 2 -15 2 -8 0
-15 -7 -15 -15z"/>
<path d="M2555 1290 c-3 -5 -1 -10 4 -10 6 0 11 5 11 10 0 6 -2 10 -4 10 -3 0
-8 -4 -11 -10z"/>
<path d="M5708 1293 c7 -3 16 -2 19 1 4 3 -2 6 -13 5 -11 0 -14 -3 -6 -6z"/>
<path d="M2708 1283 c7 -3 16 -2 19 1 4 3 -2 6 -13 5 -11 0 -14 -3 -6 -6z"/>
<path d="M1295 1158 c-68 -62 -56 -167 24 -207 56 -29 178 -29 236 -1 80 39
96 135 35 203 l-28 32 -115 3 -115 4 -37 -34z m155 -63 c0 -20 5 -25 25 -25
14 0 25 -4 25 -10 0 -5 -11 -10 -25 -10 -20 0 -25 -5 -25 -25 0 -14 -4 -25
-10 -25 -5 0 -10 11 -10 25 0 20 -5 25 -25 25 -14 0 -25 5 -25 10 0 6 11 10
25 10 20 0 25 5 25 25 0 14 5 25 10 25 6 0 10 -11 10 -25z"/>
<path d="M4092 1108 c-13 -6 -21 -17 -18 -24 3 -8 0 -16 -6 -20 -7 -5 -8 -2
-3 6 5 8 4 11 -2 7 -36 -23 -18 -129 25 -150 62 -31 142 -1 142 53 0 14 0 39
0 56 0 45 -27 74 -75 79 -22 3 -50 -1 -63 -7z m108 -14 c0 -8 -19 -13 -24 -6
-3 5 1 9 9 9 8 0 15 -2 15 -3z m-26 -31 c11 -12 36 -12 36 0 0 5 3 7 7 4 3 -4
-2 -16 -11 -26 -10 -11 -15 -24 -12 -29 3 -5 -1 -18 -10 -30 -15 -22 -69 -28
-81 -9 -10 17 -21 87 -12 82 4 -3 10 -1 14 5 7 11 58 14 69 3z"/>
<path d="M5480 1107 c-32 -16 -50 -52 -50 -100 0 -101 139 -136 185 -47 50 97
-40 195 -135 147z m100 -92 l0 -55 -50 0 -50 0 0 55 0 55 50 0 50 0 0 -55z"/>
<path d="M5499 1028 c-7 -25 -7 -48 1 -48 6 0 10 11 10 25 0 20 -7 35 -11 23z"/>
<path d="M5521 1002 c1 -17 3 -21 6 -9 2 9 8 17 13 17 5 0 11 -8 14 -17 3 -11
4 -9 3 6 -3 35 -37 38 -36 3z"/>
<path d="M4110 755 c-8 -9 -9 -15 -2 -15 6 0 13 -17 15 -37 3 -28 4 -24 4 15
0 28 -1 52 -3 52 -1 0 -7 -7 -14 -15z"/>
<path d="M4175 760 c-3 -5 3 -10 14 -10 26 0 26 -5 1 -37 -27 -35 -25 -43 10
-43 17 0 30 5 30 11 0 6 -9 9 -20 6 -26 -7 -25 1 1 30 18 18 20 25 9 38 -14
17 -36 20 -45 5z"/>
<path d="M4261 761 c-19 -12 -23 -67 -7 -80 20 -17 46 -2 46 25 0 17 -6 24
-20 24 -25 0 -25 9 -2 26 19 15 5 19 -17 5z m27 -62 c-6 -17 -22 -12 -30 10
-7 19 -5 20 13 11 11 -6 19 -16 17 -21z"/>
<path d="M5532 758 c-7 -7 -12 -17 -12 -22 0 -6 5 -4 10 4 7 11 10 4 10 -27 0
-24 5 -43 10 -43 6 0 10 23 10 50 0 51 -6 60 -28 38z"/>
<path d="M5597 763 c-15 -14 -7 -81 9 -87 23 -9 44 12 44 43 0 39 -32 65 -53
44z m33 -44 c0 -20 -4 -29 -12 -27 -7 3 -12 14 -11 26 1 31 2 32 13 32 6 0 10
-14 10 -31z"/>
<path d="M5665 761 c-3 -7 2 -11 14 -11 26 0 26 -10 1 -43 -27 -34 -26 -37 15
-37 19 0 35 5 35 10 0 6 -10 10 -22 10 -20 0 -20 1 -4 19 10 11 16 28 14 38
-4 20 -42 30 -53 14z"/>
<path d="M5460 740 c0 -5 -8 -10 -17 -10 -14 0 -13 -3 5 -21 20 -18 24 -19 38
-5 14 14 14 18 0 31 -17 17 -26 19 -26 5z"/>
<path d="M4055 710 c-3 -5 1 -10 10 -10 9 0 13 5 10 10 -3 6 -8 10 -10 10 -2
0 -7 -4 -10 -10z"/>
<path d="M4050 485 c0 -14 4 -25 9 -25 4 0 6 11 3 25 -2 14 -6 25 -8 25 -2 0
-4 -11 -4 -25z"/>
<path d="M4262 485 c0 -16 2 -22 5 -12 2 9 2 23 0 30 -3 6 -5 -1 -5 -18z"/>
<path d="M4690 500 c0 -5 5 -10 11 -10 5 0 7 5 4 10 -3 6 -8 10 -11 10 -2 0
-4 -4 -4 -10z"/>
<path d="M5930 500 c0 -5 -6 -7 -14 -4 -8 3 -17 0 -22 -7 -5 -8 -3 -10 6 -4 8
5 18 1 27 -10 12 -18 13 -17 13 8 0 15 -2 27 -5 27 -3 0 -5 -4 -5 -10z"/>
<path d="M4084 489 c-3 -6 -2 -15 3 -20 5 -5 9 -1 9 11 0 23 -2 24 -12 9z"/>
<path d="M4280 473 c0 -25 1 -26 16 -11 9 9 13 21 10 27 -13 20 -26 11 -26
-16z"/>
<path d="M4329 498 c-6 -21 -5 -38 1 -38 5 0 8 9 7 20 -1 17 -5 26 -8 18z"/>
<path d="M4353 486 c1 -11 9 -21 17 -23 10 -3 11 -2 4 4 -6 4 -14 15 -17 23
-5 11 -6 9 -4 -4z"/>
<path d="M4407 494 c12 -3 24 -13 27 -22 3 -12 4 -11 3 3 -2 14 -10 21 -27 22
-21 1 -21 1 -3 -3z"/>
<path d="M4525 491 c4 -8 2 -17 -6 -22 -9 -6 -10 -9 -2 -9 19 0 27 21 13 33
-10 9 -11 9 -5 -2z"/>
<path d="M4565 490 c-8 -13 3 -30 18 -30 8 0 7 3 -2 9 -7 5 -10 14 -7 20 4 6
5 11 2 11 -3 0 -8 -4 -11 -10z"/>
<path d="M4790 489 c0 -5 5 -7 10 -4 6 3 10 8 10 11 0 2 -4 4 -10 4 -5 0 -10
-5 -10 -11z"/>
<path d="M4836 492 c-3 -5 1 -9 9 -9 8 0 12 4 9 9 -3 4 -7 8 -9 8 -2 0 -6 -4
-9 -8z"/>
<path d="M4925 490 c-8 -13 3 -30 18 -30 8 0 7 3 -2 9 -7 5 -10 14 -7 20 4 6
5 11 2 11 -3 0 -8 -4 -11 -10z"/>
<path d="M4960 496 c0 -2 7 -7 16 -10 8 -3 12 -2 9 4 -6 10 -25 14 -25 6z"/>
<path d="M5008 493 c6 -2 12 -11 12 -19 0 -16 26 -19 35 -4 3 5 0 7 -8 4 -8
-3 -17 2 -20 10 -4 9 -12 16 -19 15 -10 0 -10 -2 0 -6z"/>
<path d="M5471 488 c-1 -21 15 -32 25 -17 4 7 3 9 -4 5 -6 -3 -13 2 -15 11 -4
16 -5 16 -6 1z"/>
<path d="M5652 480 c0 -14 2 -19 5 -12 2 6 2 18 0 25 -3 6 -5 1 -5 -13z"/>
<path d="M5670 496 c0 -2 7 -7 16 -10 8 -3 12 -2 9 4 -6 10 -25 14 -25 6z"/>
<path d="M5713 481 c0 -11 5 -18 9 -15 4 3 5 11 1 19 -7 21 -12 19 -10 -4z"/>
<path d="M5797 494 c12 -3 24 -13 27 -22 3 -12 4 -11 3 3 -2 14 -10 21 -27 22
-21 1 -21 1 -3 -3z"/>
<path d="M5855 490 c-3 -6 1 -7 9 -4 18 7 21 14 7 14 -6 0 -13 -4 -16 -10z"/>
<path d="M5954 489 c-3 -6 -2 -15 3 -20 5 -5 9 -1 9 11 0 23 -2 24 -12 9z"/>
<path d="M6180 489 c0 -5 5 -7 10 -4 6 3 10 8 10 11 0 2 -4 4 -10 4 -5 0 -10
-5 -10 -11z"/>
<path d="M6245 490 c-3 -6 1 -7 9 -4 18 7 21 14 7 14 -6 0 -13 -4 -16 -10z"/>
<path d="M6345 490 c-8 -13 3 -30 18 -30 7 0 6 4 -3 10 -13 9 -13 11 0 20 9 6
10 10 3 10 -6 0 -15 -4 -18 -10z"/>
<path d="M6420 489 c0 -5 5 -7 10 -4 6 3 10 8 10 11 0 2 -4 4 -10 4 -5 0 -10
-5 -10 -11z"/>
<path d="M6220 481 c0 -6 4 -13 10 -16 6 -3 7 1 4 9 -7 18 -14 21 -14 7z"/>
<path d="M6436 475 c-11 -8 -15 -15 -9 -15 6 0 16 7 23 15 16 19 11 19 -14 0z"/>
<path d="M4730 470 c0 -6 7 -10 15 -10 8 0 15 2 15 4 0 2 -7 6 -15 10 -8 3
-15 1 -15 -4z"/>
<path d="M5106 469 c2 -4 13 -7 24 -6 23 2 17 10 -10 12 -10 1 -17 -2 -14 -6z"/>
<path d="M6040 470 c-9 -6 -10 -10 -3 -10 6 0 15 5 18 10 8 12 4 12 -15 0z"/>
<path d="M6120 470 c0 -6 7 -10 15 -10 8 0 15 2 15 4 0 2 -7 6 -15 10 -8 3
-15 1 -15 -4z"/>
<path d="M5475 399 c-4 -6 -5 -12 -2 -15 2 -3 7 2 10 11 7 17 1 20 -8 4z"/>
<path d="M5709 408 c0 -2 -2 -14 -3 -27 -3 -22 -2 -23 11 -6 16 22 17 35 3 35
-5 0 -10 -1 -11 -2z"/>
<path d="M5540 380 c-13 -8 -12 -10 3 -10 9 0 17 5 17 10 0 12 -1 12 -20 0z"/>
<path d="M6846 15 c-3 -8 -1 -15 4 -15 6 0 10 7 10 15 0 19 -6 19 -14 0z"/>
</g>
</svg>
